<svg xmlns="http://www.w3.org/2000/svg" width="171" height="114" viewBox="0 0 171 114" fill="none">
  <path d="M67.7369 64.3565C67.3603 64.3565 67.1266 64.3872 66.5198 64.5025C66.2887 63.6045 66.2295 63.2889 66.2023 61.6657C65.3035 63.7773 63.5948 64.9085 61.3078 64.9085C58.673 64.9085 56.8784 63.199 56.8784 60.7103C56.8784 59.4063 57.4274 58.1909 58.3547 57.5253C59.2807 56.8584 59.8617 56.6286 62.7854 55.9328C64.4059 55.525 64.8111 55.4119 66.0282 54.7748C65.9984 52.6285 64.9571 51.7328 62.581 51.7328C61.1346 51.7328 60.0915 52.0809 58.702 53.0367V50.9519C60.0617 50.2863 61.2788 50.025 62.8415 50.025C65.2456 50.025 67.1858 50.8365 67.9386 52.1962C68.4021 53.0078 68.5463 53.8768 68.5463 55.4693V55.6715L68.5165 58.0449V59.2892C68.5165 62.041 68.6038 62.8513 69.0383 64.503C68.2565 64.3872 68.0824 64.3565 67.7369 64.3565ZM66.1151 56.2792C65.043 56.8579 64.5804 57.0614 63.6829 57.3214L61.9163 57.841C60.1778 58.3658 59.4548 59.0875 59.4548 60.42C59.4548 61.9261 60.5558 62.999 62.0887 62.999C63.9714 62.999 65.506 61.5508 65.912 59.4067C66.0563 58.5969 66.1151 57.9006 66.1151 56.8584V56.2792ZM77.4936 64.9085C73.4694 64.9085 70.5448 61.8086 70.5448 57.4968C70.5448 53.2099 73.5268 50.025 77.5808 50.025C78.8831 50.025 79.9533 50.2556 81.3446 50.8655V53.1828C80.3309 52.3137 79.2895 51.9349 78.0136 51.9349C75.1759 51.9349 73.2085 54.2232 73.2085 57.4674C73.2085 60.7966 75.0597 62.9968 77.9561 62.9968C79.3746 62.9968 80.5339 62.5329 81.6918 61.5179V63.6045C80.3602 64.5315 79.1435 64.9085 77.4936 64.9085ZM89.7407 64.9085C85.7165 64.9085 82.7928 61.8086 82.7928 57.4968C82.7928 53.2099 85.7739 50.025 89.8279 50.025C91.1319 50.025 92.2022 50.2556 93.5917 50.8655V53.1828C92.578 52.3137 91.5366 51.9349 90.2625 51.9349C87.4256 51.9349 85.4556 54.2232 85.4556 57.4674C85.4556 60.7966 87.3085 62.9968 90.2033 62.9968C91.6234 62.9968 92.7827 62.5329 93.9389 61.5179V63.6045C92.6078 64.5315 91.391 64.9085 89.7407 64.9085ZM107.867 56.8886H97.6746V57.3503C97.6746 59.7255 98.1092 60.8563 99.3263 61.895C100.251 62.6491 101.381 63.056 102.713 63.056C104.536 63.056 105.927 62.5334 107.345 61.3469V63.5164C105.753 64.5025 104.247 64.9068 102.307 64.9068C97.9053 64.9068 95.0386 62.041 95.0386 57.6393C95.0386 53.1231 97.8185 50.025 101.901 50.025C105.608 50.025 107.896 52.4001 107.896 56.2779C107.897 56.4234 107.896 56.6558 107.867 56.8886ZM101.99 51.8209C99.9625 51.8209 98.6603 52.8921 97.9057 55.1501H105.435C105.289 53.067 103.987 51.8209 101.99 51.8209ZM111.544 44.4955C112.008 44.4955 112.5 44.4087 113.077 44.2916C112.962 47.3898 112.905 50.7787 112.905 54.4539C112.905 57.7274 112.933 61.1128 113.077 64.62C112.528 64.5025 112.036 64.4179 111.544 64.4179C111.08 64.4179 110.617 64.5025 110.096 64.62C110.21 61.549 110.27 58.1637 110.27 54.4539C110.27 50.8344 110.21 47.4494 110.096 44.2916C110.617 44.4087 111.11 44.4955 111.544 44.4955ZM122.403 52.1094C120.752 52.1094 119.129 53.3248 118.118 55.2944C118.088 56.7154 118.088 57.2653 118.088 58.1904C118.088 60.3924 118.146 62.0121 118.32 64.5025C117.711 64.3872 117.508 64.3565 116.872 64.3565C116.263 64.3565 116.032 64.3872 115.424 64.5025C115.57 62.9679 115.627 61.0566 115.627 57.4371C115.627 54.8037 115.51 51.9958 115.394 50.4292C116.005 50.5156 116.263 50.548 116.64 50.548C117.046 50.548 117.279 50.516 117.857 50.4292C117.913 51.0676 117.942 51.8196 117.942 52.8636V53.0946C118.929 51.4153 119.883 50.5752 121.273 50.1986C121.676 50.0828 122.172 50.025 122.692 50.025C123.069 50.025 123.3 50.025 123.822 50.1113V52.4286C123.183 52.1673 122.924 52.1094 122.403 52.1094ZM137.69 54.6288C137.053 56.7422 136.619 58.1308 136.415 58.7692L135.171 62.5908C133.981 66.2103 133.664 66.9627 133.057 68.1203C132.738 68.7008 132.39 69.1927 131.956 69.5409C131.204 70.1775 130.16 70.5239 129.033 70.5239C128.25 70.5239 127.875 70.466 126.977 70.0894V67.9466C127.671 68.4105 128.019 68.5543 128.598 68.5543C130.073 68.5543 131.03 67.4293 131.869 64.6753C131.145 63.1117 130.942 62.6483 130.016 60.5651C129.323 58.9441 128.801 57.7265 128.424 56.8575L127.063 53.6146L126.079 51.357L125.644 50.4283C126.485 50.5147 126.831 50.5472 127.323 50.5472C127.845 50.5472 128.108 50.5152 128.772 50.4283C129.206 51.8205 129.987 54.0202 130.538 55.3803L131.177 56.9456L133.029 61.5179L134.448 56.8001L134.85 55.4386L135.401 53.4713C135.663 52.5154 135.807 51.9366 136.156 50.4292C136.792 50.5156 137.053 50.548 137.602 50.548C138.124 50.548 138.415 50.516 139.138 50.4292C138.53 52.023 138.356 52.5154 137.69 54.6288ZM145.623 64.9085C143.856 64.9085 142.351 64.5319 140.701 63.6335V61.7222C142.119 62.6474 143.77 63.1126 145.595 63.1126C147.476 63.1126 148.78 62.1006 148.78 60.6528C148.78 59.2896 148.114 58.8297 144.9 58.0453C143.136 57.6125 142.205 57.2355 141.513 56.5971C140.847 56.02 140.44 55.0927 140.44 54.1083C140.44 51.6468 142.612 50.025 145.913 50.025C147.62 50.025 149.043 50.3731 150.633 51.1557V53.1828C149.272 52.2252 147.708 51.7345 145.971 51.7345C144.234 51.7345 142.989 52.6022 142.989 53.8479C142.989 54.8309 143.683 55.4689 145.334 55.8749L147.071 56.3077C149.995 57.0324 151.269 58.2768 151.269 60.3599C151.269 63.0854 148.982 64.9085 145.623 64.9085Z" fill="black"/>
  <mask id="mask0_94_2033" style="mask-type:luminance" maskUnits="userSpaceOnUse" x="19" y="39" width="36" height="36">
    <path d="M37.9087 64.4179C37.2405 66.1274 36.036 67.5516 34.5049 68.5565C31.2037 70.7181 26.6955 70.477 23.7595 67.801C26.3342 72.2251 32.1368 74.0583 36.7788 71.8941C39.0614 70.826 41.0112 68.852 41.9017 66.4721C42.5323 64.791 42.7361 62.2242 40.429 61.859C40.3338 61.8437 40.243 61.8353 40.1549 61.8353C38.8527 61.8358 38.3138 63.3857 37.9087 64.4179ZM43.1277 57.6186C42.0114 58.6425 42.9589 60.1512 43.5521 61.1768C44.4733 62.7693 44.8482 64.606 44.6737 66.4308C44.308 70.3542 41.3081 73.7211 37.3803 74.3508C42.4446 75.0962 47.5035 71.7007 48.6979 66.7246C49.292 64.2767 48.9566 61.5179 47.653 59.3414C46.9866 58.2259 45.8203 56.9987 44.5759 56.9987C44.0958 56.9991 43.6074 57.1806 43.1277 57.6186ZM25.302 65.7929C27.5684 66.925 30.3272 67.2117 32.7388 66.423C34.4457 65.8674 36.5806 64.4262 35.4331 62.3957C34.6794 61.0746 32.9962 61.6621 31.8627 62.0103C30.1032 62.5588 28.238 62.518 26.4854 61.9375C22.7511 60.7067 20.1264 57.0381 20.3869 53.0687C18.5409 57.8357 20.7205 63.5181 25.302 65.7929ZM41.497 52.8666C41.5979 54.3727 43.371 54.5713 44.5496 54.7458C46.3644 55.0212 48.0266 55.8696 49.3481 57.1482C52.1867 59.8794 52.9567 64.3328 50.9959 67.7822C54.7351 64.292 55.2376 58.2329 52.1004 54.1837C50.5443 52.1922 48.1796 50.7344 45.6629 50.3959C45.3673 50.3586 45.0525 50.3367 44.7342 50.3367C43.1172 50.3371 41.3664 50.9128 41.497 52.8666ZM37.4308 46.3765C36.1338 47.6226 34.8351 49.843 36.7595 51.1706C38.0056 52.0335 39.2727 50.7721 40.1387 49.9688C41.4843 48.7126 43.1777 47.9471 45.0153 47.7059C48.9167 47.185 52.8699 49.3646 54.3563 53.0503C53.9529 47.9501 49.5244 43.779 44.4001 43.7163C44.3536 43.7163 44.3058 43.7146 44.2611 43.7146C41.782 43.7146 39.2346 44.6546 37.4308 46.3765ZM22.9199 53.0262C23.4482 55.4912 24.9504 57.8357 27.066 59.2282C28.5699 60.2161 31.0231 60.9904 31.8925 58.8187C32.4586 57.4095 30.9411 56.4572 29.9642 55.7938C28.4432 54.7599 27.3132 53.2709 26.674 51.5446C25.3038 47.8537 26.5433 43.5111 29.8046 41.2465C24.9258 42.7688 21.8434 48.0251 22.9199 53.0262ZM31.4194 43.2003C29.816 45.147 28.9263 47.7787 29.1557 50.3117C29.3135 52.0993 30.2474 54.4915 32.4831 53.8264C33.938 53.3897 33.742 51.6086 33.6459 50.4292C33.5052 48.5925 33.9678 46.7873 34.9201 45.2154C36.9489 41.8353 41.1156 40.0951 44.9175 41.236C43.2369 40.0951 41.2695 39.5466 39.3078 39.5466C36.335 39.5466 33.3693 40.8098 31.4194 43.2003Z" fill="white"/>
  </mask>
  <g mask="url(#mask0_94_2033)">
    <path d="M18.541 39.5466H55.2372V75.0962H18.541V39.5466Z" fill="url(#paint0_radial_94_2033)"/>
  </g>
  <defs>
    <radialGradient id="paint0_radial_94_2033" cx="0" cy="0" r="1" gradientUnits="userSpaceOnUse" gradientTransform="translate(37.0385 56.9976) scale(17.3869 17.3869)">
      <stop stop-color="#00A1E4"/>
      <stop offset="0.2344" stop-color="#009DE0"/>
      <stop offset="0.4071" stop-color="#0095D6"/>
      <stop offset="0.5599" stop-color="#0089C8"/>
      <stop offset="0.7014" stop-color="#0078B5"/>
      <stop offset="0.8349" stop-color="#00629D"/>
      <stop offset="0.9608" stop-color="#004A83"/>
      <stop offset="1" stop-color="#00427B"/>
    </radialGradient>
  </defs>
</svg>