<svg xmlns="http://www.w3.org/2000/svg" width="179" height="119" viewBox="0 0 179 119" fill="none">
  <path d="M100.493 66.702H91.7865V61.8289H100.497C101.929 61.8523 103.086 62.9211 103.086 64.2562C103.086 65.5911 101.925 66.702 100.493 66.702ZM91.7865 52.4143H100.343C101.513 52.4282 102.505 53.3291 102.505 54.5101C102.505 55.6863 101.466 56.6245 100.291 56.6105H91.7865V52.4143ZM105.412 59.229C107.022 58.0995 107.631 56.2278 107.631 54.1695C107.631 50.2952 104.359 47.1912 100.348 47.1912H85.8186V71.9251H100.919V71.9345C105.159 71.9345 108.688 68.6719 108.688 64.6765C108.688 62.0719 107.116 60.1438 105.412 59.229ZM127.819 47.1354V61.0404C127.819 65.2927 125.328 67.0755 122.267 67.0755C119.201 67.0755 116.73 65.2972 116.73 61.0449V47.1354H110.547V61.0823C110.547 69.9789 115.789 72.5693 122.267 72.5693C128.75 72.5693 133.997 69.9789 133.997 61.0823V47.1354H127.819ZM149.514 56.7742C144.51 55.6912 142.82 55.2104 142.82 53.6282C142.82 52.2326 144.632 51.5278 147.492 51.5278C150.192 51.5278 153.455 52.676 155.369 53.8195L157.321 48.7879C154.419 47.5836 150.927 46.4307 146.312 46.4307C140.26 46.4307 136.483 49.9595 136.483 54.2722C136.483 58.5899 139.595 60.4897 145.764 61.792C150.548 62.8001 151.844 63.4068 151.844 64.891C151.844 66.3755 149.925 66.9215 147.332 66.9215C143.976 66.9215 140.747 65.8059 137.704 64.5036L135.865 69.4091C139.502 71.0896 143.279 72.4385 147.782 72.4385C155.285 72.4385 158.346 68.8631 158.346 64.6949C158.346 60.9887 155.772 58.1321 149.514 56.774M33.184 47.191L20.6538 71.9206L28.0961 71.9253L29.9685 67.9485H38.5151L35.8568 62.5291H32.482L35.6601 55.7659L43.6641 71.9253H51.1253L38.108 47.1912L33.184 47.191ZM83.5299 55.4153C83.5299 50.9112 80.4312 47.2562 74.0606 47.2562H61.1934V71.9901L67.1566 71.9853V52.4795H74.4726C76.635 52.4795 77.5336 53.8146 77.5336 55.4016C77.5336 56.9931 76.5883 58.2674 74.4257 58.2674H69.3095L77.0517 71.9856H83.1741C83.1741 71.9856 77.8755 63.0191 77.9035 63.0144C81.7277 61.8289 83.5297 58.9396 83.5297 55.4153M52.4031 71.9343H58.5721V47.2052H52.4031V71.9343Z" fill="#00205B"/>
</svg>