<svg xmlns="http://www.w3.org/2000/svg" width="185" height="123" viewBox="0 0 185 123" fill="none">
  <path d="M21.3462 74.4928C23.9032 74.3444 24.6075 73.9733 26.6435 69.0243L34.7928 49.4111H35.4228L45.4593 71.7572C46.4214 73.9017 47.3119 74.4928 49.2362 74.4928V75.6008C46.682 75.5637 45.0526 75.4895 43.5721 75.4895C42.089 75.4895 40.4942 75.5637 37.9027 75.6008V74.4928C39.9785 74.4928 40.5713 74.1244 40.5713 73.125C40.5713 72.7194 40.3135 71.9427 39.5347 70.0978L38.0542 66.6253H29.5699L28.4961 69.618C27.5711 72.2026 27.4941 72.7194 27.4941 73.0905C27.4941 74.0475 27.938 74.4557 30.2344 74.4928V75.6008C27.0529 75.4895 26.6807 75.4895 25.7929 75.4895C24.8654 75.4895 24.4985 75.4895 21.3462 75.6008L21.3462 74.4928ZM37.4588 65.2204L33.4586 55.7279L30.0536 65.2203L37.4588 65.2204ZM49.5393 60.8996C50.4669 60.7511 54.0578 59.7173 56.0221 58.7207V61.602C58.874 59.3462 60.4662 58.7207 62.2789 58.7207C64.6525 58.7207 66.0213 59.9029 66.5397 61.602C69.0568 59.5689 71.0582 58.7207 72.7619 58.7207C75.0956 58.7207 77.1343 60.1255 77.1343 63.5928V72.8308C77.1343 74.1588 77.9849 74.4928 79.3936 74.4928V75.6008C78.3171 75.5637 76.2067 75.4895 74.9122 75.4895C73.6178 75.4895 71.5021 75.5637 70.4309 75.6008V74.4928C72.3526 74.4928 72.9108 74.1959 72.9108 72.0912V64.2237C72.9108 61.6391 71.3532 61.3025 70.2794 61.3025C69.2428 61.3025 68.0201 61.7478 66.5768 62.8559V72.7539C66.5768 73.9388 67.244 74.4928 68.3923 74.4928H68.69V75.6008C67.5045 75.5638 65.612 75.4895 64.4664 75.4895C63.3155 75.4895 61.4284 75.5638 60.2429 75.6008V74.4928H60.5406C61.6888 74.4928 62.3533 73.9388 62.3533 72.7539V63.6697C62.3533 62.1561 61.2423 61.3025 59.6156 61.3025C58.5763 61.3025 57.2447 61.8592 56.0221 62.8559V72.7539C56.0221 73.9388 56.6892 74.4928 57.8348 74.4928H58.1325V75.6008C56.947 75.5638 55.0572 75.4895 53.9116 75.4895C52.7608 75.4895 50.8736 75.5638 49.6881 75.6008V74.4928H49.9831C51.1314 74.4928 51.7986 73.9388 51.7986 72.7539V63.2986C51.7986 62.3018 51.5381 61.8592 50.5759 61.8592C50.3526 61.8592 49.946 61.9334 49.5393 62.0792V60.8996ZM81.512 70.7234H82.6204C83.1015 73.793 85.1029 74.7499 86.9927 74.7499C88.7709 74.7499 90.1398 73.8301 90.1398 72.4252C90.1398 69.2469 81.6608 69.3185 81.6608 63.7784C81.6608 60.9367 83.6968 58.7207 87.9921 58.7207C89.5125 58.7207 91.0648 58.9778 92.6595 59.4204L92.8084 63.7412H91.7718C91.4369 61.602 89.9563 59.826 87.6599 59.826C86.1395 59.826 84.9195 60.6398 84.9195 62.1163C84.9195 65.2575 93.4011 65.443 93.4011 70.6518C93.4011 73.679 90.9558 75.8606 86.3655 75.8606C85.18 75.8606 83.1786 75.5266 81.512 74.7499L81.512 70.7234ZM98.034 60.7883H95.0331V59.6803C96.9202 58.5695 100.625 55.6908 102.255 53.6602V59.0864H107.294L106.699 60.7883H102.255V71.3914C102.255 72.4967 102.776 73.4219 104.07 73.4219C104.884 73.4219 105.737 72.905 106.516 72.1654L107.143 73.1992L103.105 75.7466C102.81 75.8209 102.515 75.8607 102.255 75.8607C100.33 75.8607 98.0339 74.7128 98.0339 70.9831L98.034 60.7883ZM108.1 60.8996C108.804 60.7511 112.4 59.7173 114.364 58.7207V63.447H114.436C116.214 59.6431 117.804 58.7207 119.364 58.7207C119.843 58.7207 120.324 58.7922 120.805 58.9406V64.1865H119.843C119.548 63.2986 118.992 62.6359 117.695 62.6359C116.696 62.6359 115.473 63.3356 114.364 64.7035V72.7539C114.364 73.9388 115.029 74.4928 116.177 74.4928H116.472V75.6008C115.287 75.5638 113.4 75.4895 112.323 75.4895C111.14 75.4895 109.251 75.5638 108.251 75.6008V74.4928H108.546C109.694 74.4928 110.362 73.9388 110.362 72.7539V63.2986C110.362 62.3018 110.101 61.8592 109.139 61.8592C108.918 61.8592 108.509 61.9334 108.1 62.0792V60.8996ZM138.882 73.8301C138.438 73.8301 134.807 75.1926 133.401 75.8606C133.029 75.2668 132.843 74.3815 132.806 73.8301C130.66 75.3066 128.401 75.8606 127.027 75.8606C124.842 75.8606 122.918 73.9017 122.918 72.0912C122.918 68.8784 125.919 67.3993 132.588 66.5881V63.1528C132.588 61.0453 131.065 60.2687 129.696 60.2687C128.622 60.2687 127.511 60.6398 127.511 62.1163C127.511 62.4874 127.697 63.1527 128.029 63.8552L123.883 65.5146C123.436 64.8519 123.287 64.2608 123.287 63.5928C123.287 60.7511 128.101 58.7207 131.843 58.7207C133.956 58.7207 136.806 60.2342 136.806 63.7412V72.1283C136.806 72.9395 137.029 73.0905 137.587 73.0905C137.771 73.0905 138.028 73.0508 138.882 72.7194V73.8301ZM132.588 67.5477C129.363 67.8818 127.436 69.3954 127.436 71.0203C127.436 72.6823 128.401 73.7161 129.993 73.7161C130.956 73.7161 131.992 73.459 132.659 72.9395C132.625 72.6108 132.588 72.0567 132.588 71.5345V67.5477ZM151.143 49.0029C152.738 49.0029 156.22 48.1175 157.998 47.3408V72.4597C157.998 73.1992 158.293 73.5306 158.96 73.5306C159.367 73.5306 159.664 73.3848 160.071 73.1621V74.2701C158.997 74.2701 155.776 75.4895 154.441 76.0833C154.184 75.638 153.883 74.7871 153.774 74.1588C152.257 75.2297 150.364 75.8606 148.477 75.8606C144.328 75.8606 140.737 72.4597 140.737 67.9905C140.737 62.8559 144.402 58.7207 149.293 58.7207C151.366 58.7207 152.257 58.9062 153.774 59.4946V51.1076C153.774 50.4449 153.516 49.9651 152.294 49.9651C151.773 49.9651 151.515 50.0022 151.143 50.1109V49.0029ZM153.774 61.3449C152.403 60.2687 151.22 59.826 149.665 59.826C146.81 59.826 145.107 62.4132 145.107 65.9944C145.107 69.618 147.515 73.7161 151.143 73.7161C152.365 73.7161 153.181 73.3079 153.774 73.0508V61.3449ZM160.898 47.7411H161.793C162.336 47.7411 162.572 47.9664 162.572 48.3985C162.572 48.7882 162.296 48.9764 161.958 49.0294L162.67 50.1241H162.442L161.724 49.024H161.102V50.1241H160.898V47.7411ZM161.102 48.8438H161.613C161.974 48.8438 162.367 48.8093 162.367 48.3932C162.367 48.0274 162.048 47.9213 161.761 47.9213H161.102L161.102 48.8438ZM159.816 48.9313C159.816 49.9519 160.605 50.7709 161.639 50.7709C162.67 50.7709 163.449 49.9466 163.449 48.9287C163.449 47.8975 162.676 47.0943 161.639 47.0943C160.595 47.0943 159.816 47.8948 159.816 48.9313ZM163.654 48.9313C163.654 50.0473 162.75 50.9486 161.631 50.9486C160.512 50.9486 159.608 50.0473 159.608 48.9313C159.608 47.818 160.512 46.9167 161.631 46.9167C162.75 46.9167 163.654 47.8179 163.654 48.9313Z" fill="#A6024F"/>
</svg>