<svg xmlns="http://www.w3.org/2000/svg" width="179" height="119" viewBox="0 0 179 119" fill="none">
  <path d="M153.239 74.2193H158.346L144.658 44.1703H143.126L129.337 74.2193H134.852L138.122 67.1909H149.969L153.239 74.2193ZM140.159 62.8112L144.046 54.4581L147.931 62.8112H140.159ZM52.5232 44.7819H58.0395L66.0059 64.5429L74.3825 44.7819H79.4893L66.6187 74.8297H65.0869L52.5232 44.7819ZM105.333 44.7819H110.848L118.815 64.5429L127.192 44.7819H132.299L119.428 74.8297H117.896L105.333 44.7819ZM101.144 44.7314H83.8302V49.5185H101.144V44.7314ZM101.144 57.1576H83.8302V61.9451H101.144V57.1576ZM101.144 69.4827H83.8302V74.2699H101.144V69.4827ZM50.3781 74.2193H55.8944L42.1045 44.1703H40.5719L32.0818 62.8115H20.6538L24.0247 67.1909H30.0859L26.8853 74.2196H31.9915L35.2615 67.1912H47.1077L50.3781 74.2193ZM37.2993 62.8112L41.1843 54.4581L45.0705 62.8112H37.2993ZM150.125 45.095H149.414V44.7565H151.225V45.095H150.507V46.925H150.125V45.095ZM151.5 44.7562H151.87L152.579 45.7655L153.288 44.7562H153.651V46.925H153.269V45.8532C153.269 45.6876 153.269 45.5319 153.273 45.3826L153.267 45.3795C153.176 45.5169 153.081 45.6521 152.979 45.7992L152.57 46.3799L152.161 45.7992C152.059 45.6521 151.963 45.5169 151.872 45.3795L151.867 45.3826C151.87 45.5394 151.871 45.6963 151.87 45.8532V46.925H151.5V44.7562Z" fill="#5482AB"/>
</svg>