<svg width="37" height="35" viewBox="0 0 37 35" fill="none" xmlns="http://www.w3.org/2000/svg">
    <path d="M36.6956 17.4003C36.6956 7.78973 28.4817 0 18.3478 0C8.21391 0 0 7.78973 0 17.4003C0 26.0855 6.7095 33.2841 15.481 34.5886V22.4288H10.823V17.3978H15.481V13.5641C15.481 9.204 18.2189 6.7945 22.4114 6.7945C24.4181 6.7945 26.5197 7.13372 26.5197 7.13372V11.4165H24.2051C21.9248 11.4165 21.2146 12.7584 21.2146 14.1328V17.3978H26.304L25.4912 22.4288H21.2173V34.5886C29.9888 33.2841 36.6983 26.0855 36.6983 17.4003H36.6956Z" fill="#40839D"/>
    <path d="M25.489 22.4312L26.3017 17.4002H21.2125V14.1351C21.2125 12.7583 21.9226 11.4188 24.2029 11.4188H26.5174V7.1361C26.5174 7.1361 24.4185 6.79688 22.4091 6.79688C18.2167 6.79688 15.4788 9.20638 15.4788 13.5664V17.4002H10.8208V22.4312H15.4788V34.591C16.4125 34.7306 17.3698 34.803 18.3456 34.803C19.3214 34.803 20.2788 34.7306 21.2125 34.591V22.4312H25.4864H25.489Z" fill="white"/>
</svg>
