<svg width="38" height="36" viewBox="0 0 38 36" fill="none" xmlns="http://www.w3.org/2000/svg">
    <path d="M19.2241 35.6125C29.5937 35.6125 38 27.6404 38 17.8062C38 7.97213 29.5937 0 19.2241 0C8.85449 0 0.448242 7.97213 0.448242 17.8062C0.448242 27.6404 8.85449 35.6125 19.2241 35.6125Z" fill="#40839D"/>
    <path d="M25.0516 11.0703C24.3384 11.0703 23.7598 11.6191 23.7598 12.2955C23.7598 12.9719 24.3384 13.5207 25.0516 13.5207C25.7649 13.5207 26.3436 12.9719 26.3436 12.2955C26.3436 11.6191 25.7649 11.0703 25.0516 11.0703Z" fill="white"/>
    <path d="M19.3133 12.6396C16.323 12.6396 13.8926 14.9471 13.8926 17.7804C13.8926 20.6137 16.3257 22.9211 19.3133 22.9211C22.3008 22.9211 24.7339 20.6137 24.7339 17.7804C24.7339 14.9471 22.3008 12.6396 19.3133 12.6396ZM19.3133 21.0757C17.3969 21.0757 15.8412 19.5978 15.8412 17.7829C15.8412 15.9681 17.3996 14.4902 19.3133 14.4902C21.2269 14.4902 22.7853 15.9681 22.7853 17.7829C22.7853 19.5978 21.2269 21.0757 19.3133 21.0757Z" fill="white"/>
    <path d="M23.6168 28.2203H14.8263C11.1794 28.2203 8.21338 25.4074 8.21338 21.9488V13.6123C8.21338 10.1537 11.1794 7.34082 14.8263 7.34082H23.6168C27.2638 7.34082 30.2298 10.1537 30.2298 13.6123V21.9488C30.2298 25.4074 27.2638 28.2203 23.6168 28.2203ZM14.8263 9.30625C12.3232 9.30625 10.2858 11.2385 10.2858 13.6123V21.9488C10.2858 24.3226 12.3232 26.2549 14.8263 26.2549H23.6168C26.1199 26.2549 28.1573 24.3226 28.1573 21.9488V13.6123C28.1573 11.2359 26.1199 9.30625 23.6168 9.30625H14.8263Z" fill="white"/>
</svg>
