<svg xmlns="http://www.w3.org/2000/svg" width="182" height="121" viewBox="0 0 182 121" fill="none">
  <path d="M22.1095 67.9384H32.6571C34.4953 67.9384 35.5019 67.7652 36.092 67.3848C36.8207 66.9338 37.2372 66.175 37.2372 65.2752C37.2372 64.2022 36.6814 63.2675 35.7455 62.8173C35.2604 62.5408 34.3567 62.4019 33.2465 62.4019H28.9786C26.2038 62.4019 24.3992 61.9174 23.1854 60.8794C21.7973 59.6675 21 57.7995 21 55.7932C21 52.8522 22.6303 50.2917 25.0243 49.461C26.0652 49.0798 27.279 48.9772 29.9859 48.9772H41.4351V53.0944H31.0954C28.9093 53.1287 28.7357 53.1287 28.0077 53.3018C27.0368 53.5433 26.4467 54.4431 26.4467 55.6536C26.4467 56.693 26.9318 57.523 27.7655 57.9035C28.4592 58.2155 29.0143 58.284 30.6803 58.284H34.3924C37.793 58.284 39.6312 58.8033 40.985 60.1876C42.0259 61.225 42.7203 63.2675 42.7203 65.2752C42.7203 67.7317 41.5751 70.0144 39.7712 71.1223C38.6267 71.8483 37.17 72.0556 33.7337 72.0556H22.1095V67.9384ZM55.9384 48.8027C52.6771 48.8027 49.8316 49.5992 48.0277 51.0526C45.738 52.8522 44.5242 56.2093 44.5242 60.6386C44.5242 63.7171 45.1815 66.2448 46.536 68.1471C48.3399 70.7432 51.8455 72.1973 56.2863 72.1973C59.409 72.1973 62.0466 71.4343 63.7819 70.0507C66.0716 68.2183 67.3575 64.8933 67.3575 60.8445L67.347 60.1841L67.319 59.5342L67.2728 58.9018L67.2105 58.2812L67.1293 57.6759L67.0285 57.0895L66.913 56.522L66.7793 55.9726L66.7065 55.7046L66.6288 55.4428L66.5476 55.1838L66.4629 54.9346L66.3754 54.6861L66.2816 54.4452L66.1836 54.2121L66.0814 53.9803L65.9785 53.7597L65.87 53.5419L65.7573 53.3304L65.6411 53.1273L65.5193 52.9283L65.3968 52.7349L65.2687 52.5506L65.1371 52.3733C63.3661 50.0843 60.0677 48.8027 55.9384 48.8027ZM55.972 52.7112C60.1013 52.7112 61.9402 55.1356 61.9402 60.5325C61.9402 65.8616 60.0663 68.3181 55.972 68.3181C51.8091 68.3181 49.9345 65.8602 49.9345 60.4634L49.9373 60.2358L49.9401 60.011L49.9436 59.7904L49.9527 59.5726L49.9625 59.3597L49.9723 59.1482L49.9849 58.9422L50.0003 58.7391L50.0185 58.5388L50.0374 58.3454L50.0591 58.1562L50.0836 57.9691L50.1088 57.7848L50.1368 57.6033L50.1683 57.4288L50.1998 57.2543L50.2348 57.0868L50.2726 56.9248L50.3104 56.7628L50.3517 56.6065L50.3951 56.4529L50.4385 56.3028L50.4847 56.1597L50.5351 56.0194L50.5883 55.8826L50.6415 55.7485L50.6982 55.6208L50.7577 55.493L50.8165 55.3716L50.8788 55.2557L50.9446 55.1426L51.0104 55.0344C51.9477 53.5447 53.7173 52.7112 55.972 52.7112ZM69.993 48.9772V72.057H74.9168V63.9914H82.831C85.4679 63.9914 86.7132 63.648 88.067 62.5059C89.663 61.1572 90.6353 58.908 90.6353 56.485C90.6353 54.4438 89.9073 52.5395 88.5542 51.0861C87.0282 49.3905 85.6037 48.9772 81.5444 48.9772H69.993ZM74.9168 53.0951H81.7173C82.5153 53.0951 83.1404 53.1629 83.5219 53.3018C84.5985 53.6822 85.2236 54.7894 85.2236 56.3112C85.2236 57.5922 84.8407 58.7 84.217 59.2194L84.1673 59.2627L84.1169 59.3052L84.0637 59.3464L84.0112 59.3876L83.9545 59.4246L83.8985 59.4595L83.839 59.4937L83.7767 59.5258L83.7137 59.5559L83.6479 59.5873L83.5821 59.6131L83.5135 59.6403L83.4407 59.6654L83.3686 59.6857L83.2937 59.708L83.2153 59.7297L83.1348 59.7471L83.0536 59.7618L82.9689 59.7771L82.8814 59.7925L82.7911 59.8051L82.7001 59.8176L82.6028 59.8274L82.5055 59.84L82.4054 59.8469L82.299 59.8532L82.1926 59.8602L82.0834 59.8665L81.97 59.8686L81.8538 59.8721H81.7348L81.6123 59.8749H74.9154V53.0951H74.9168ZM106.769 62.5401H97.8523V72.0542H92.925V48.9772H97.8523V58.4229H106.769V48.9772H111.696V72.0542H106.769V62.5401ZM126.062 48.8027C122.801 48.8027 119.955 49.5992 118.151 51.0526C115.861 52.8522 114.644 56.2093 114.644 60.6386C114.644 63.7171 115.304 66.2448 116.659 68.1471C118.461 70.7432 121.967 72.1973 126.409 72.1973C129.533 72.1973 132.168 71.4343 133.901 70.0507C136.191 68.2183 137.476 64.8933 137.476 60.8445L137.466 60.1841L137.439 59.5342L137.392 58.9018L137.329 58.2812L137.248 57.6759L137.147 57.0895L137.031 56.522L136.9 55.9726L136.825 55.7046L136.75 55.4428L136.669 55.1838L136.582 54.9346L136.494 54.6861L136.4 54.4452L136.303 54.2121L136.202 53.9803L136.096 53.7597L135.987 53.5419L135.875 53.3304L135.759 53.1273L135.637 52.9283L135.515 52.7349L135.385 52.5506L135.253 52.3733C133.485 50.0843 130.192 48.8027 126.062 48.8027ZM126.097 52.7112C130.225 52.7112 132.065 55.1356 132.065 60.5325C132.065 65.8616 130.19 68.3181 126.097 68.3181C121.934 68.3181 120.06 65.8602 120.06 60.4634V60.2358L120.063 60.011L120.07 59.7904L120.075 59.5726L120.085 59.3597L120.099 59.1482L120.112 58.9422L120.126 58.7391L120.141 58.5388L120.16 58.3454L120.184 58.1562L120.206 57.9691L120.231 57.7848L120.259 57.6033L120.289 57.4288L120.322 57.2543L120.357 57.0868L120.394 56.9248L120.432 56.7628L120.473 56.6065L120.517 56.4529L120.56 56.3028L120.609 56.1597L120.658 56.0194L120.709 55.8826L120.762 55.7485L120.818 55.6208L120.878 55.493L120.937 55.3716L121 55.2557L121.066 55.1426L121.136 55.0344C122.071 53.5447 123.841 52.7112 126.097 52.7112ZM140.391 67.9384H150.939C152.776 67.9384 153.782 67.7652 154.373 67.3848C155.1 66.9338 155.518 66.175 155.518 65.2752C155.518 64.2022 154.962 63.2675 154.026 62.8173C153.539 62.5408 152.638 62.4019 151.528 62.4019H147.26C144.484 62.4019 142.68 61.9174 141.466 60.8794C140.078 59.6675 139.28 57.7995 139.28 55.7932C139.28 52.8522 140.909 50.2917 143.305 49.461C144.345 49.0798 145.561 48.9772 148.266 48.9772H159.716V53.0944H149.376C147.19 53.1287 147.017 53.1287 146.289 53.3018C145.317 53.5433 144.727 54.4431 144.727 55.6536C144.727 56.693 145.214 57.523 146.048 57.9035C146.74 58.2155 147.295 58.284 148.961 58.284H152.673C156.073 58.284 157.912 58.8033 159.267 60.1876C160.307 61.225 161 63.2668 161 65.2745C161 67.731 159.855 70.0137 158.051 71.1216C156.906 71.8476 155.449 72.0549 152.013 72.0549H140.391V67.9384H140.391Z" fill="#007AFF"/>
</svg>