<svg width="34" height="34" viewBox="0 0 34 34" fill="none" xmlns="http://www.w3.org/2000/svg">
    <g clip-path="url(#clip0_108_2)">
        <path d="M17 34C26.3888 34 34 26.3888 34 17C34 7.61116 26.3888 0 17 0C7.61116 0 0 7.61116 0 17C0 26.3888 7.61116 34 17 34Z" fill="#40839D"/>
        <path d="M26.0665 10.9086C25.429 11.2627 24.6499 11.4752 23.9415 11.5461C24.7207 11.0502 25.2874 10.2711 25.5707 9.35023C24.8624 9.77523 24.0832 10.1294 23.1624 10.3419C22.454 9.56273 21.5332 9.06689 20.4707 9.06689C18.4165 9.06689 16.7165 10.8377 16.7165 13.1044C16.7165 13.3877 16.7165 13.7419 16.7874 14.0252C13.6707 13.8836 10.9082 12.2544 9.06654 9.84606C8.71237 10.4127 8.5707 11.1211 8.5707 11.9002C8.5707 13.3169 9.2082 14.5211 10.1999 15.2294C9.56237 15.2294 8.9957 15.0169 8.49987 14.7336V14.8044C8.49987 16.7169 9.77487 18.3461 11.4749 18.7711C11.1915 18.8419 10.8374 18.9127 10.4832 18.9127C10.2707 18.9127 9.98737 18.9127 9.77487 18.8419C10.2707 20.4711 11.6165 21.6044 13.2457 21.6044C11.9707 22.6669 10.3415 23.3044 8.64154 23.3044C8.3582 23.3044 8.07487 23.3044 7.7207 23.2336C9.34987 24.3669 11.3332 25.0752 13.4582 25.0752C20.329 25.0752 24.0832 18.9836 24.0832 13.6711C24.0832 13.5294 24.0832 13.3169 24.0832 13.1752C24.9332 12.4669 25.5707 11.7586 26.0665 10.9086Z" fill="white"/>
    </g>
    <defs>
    <clipPath id="clip0_108_2">
        <rect width="34" height="34" fill="white"/>
    </clipPath>
</defs>
</svg>
